<svg width="57" height="57" fill="none" xmlns="http://www.w3.org/2000/svg"><path fill-rule="evenodd" clip-rule="evenodd" d="M8.45738 45.5309L20.0455 16.8136C21.3893 12.7837 26.4273 15.135 35.1597 23.8673C43.8914 32.599 46.2427 37.6371 42.2135 38.9816L13.4948 50.569C12.1517 51.2409 10.8079 50.9053 9.46414 49.5615C8.12108 48.2177 7.78478 46.8747 8.45667 45.5309H8.45738ZM29.6179 11.2718L31.6329 9.25611L33.6478 11.2718L31.6329 13.2867L29.6179 11.2718ZM18.0298 8.75238L20.0455 6.73743L22.0604 8.75238L20.0455 10.768L18.0298 8.75238Z" fill="#C3CAEA"/><path fill-rule="evenodd" clip-rule="evenodd" d="M16.0149 14.7986L18.0298 12.783L20.0455 14.7986L18.0298 16.8136L16.0149 14.7986ZM45.2538 34.9332L47.7219 33.5082L49.1469 35.9763L46.6788 37.4013L45.2538 34.9332Z" fill="#7282C6"/><path fill-rule="evenodd" clip-rule="evenodd" d="M41.7269 12.2622L44.195 10.8372L45.62 13.3045L43.1519 14.7295L41.7269 12.2622Z" fill="#98A7E7"/><path fill-rule="evenodd" clip-rule="evenodd" d="M31.6508 17.2995L34.1189 15.8745L35.5439 18.3426L33.0758 19.7676L31.6508 17.2995Z" fill="#7282C6"/><path fill-rule="evenodd" clip-rule="evenodd" d="M49.2837 37.9564L51.7525 36.5314L53.1775 38.9995L50.7094 40.4245L49.2837 37.9564Z" fill="#98A7E7"/><path fill-rule="evenodd" clip-rule="evenodd" d="M44.75 43.5338L46.175 41.0649L48.6431 42.4899L47.2181 44.9588L44.75 43.5338Z" fill="#C3CAEA"/><path fill-rule="evenodd" clip-rule="evenodd" d="M9.4834 31.442L10.9084 28.9739L13.3758 30.3989L11.9508 32.867L9.4834 31.442Z" fill="#98A7E7"/><path fill-rule="evenodd" clip-rule="evenodd" d="M45.7568 47.5288L48.2256 46.1038L49.6507 48.5719L47.1825 49.9969L45.7568 47.5288Z" fill="#7282C6"/><path fill-rule="evenodd" clip-rule="evenodd" d="M37.2438 42.49L39.7119 41.065L41.1369 43.5338L38.6688 44.9588L37.2438 42.49ZM42.9688 37.2182C41.7169 38.47 35.9649 34.7486 30.1217 28.9054C24.2785 23.0622 20.5564 17.3102 21.8082 16.0576C23.0608 14.8058 28.8121 18.5279 34.656 24.3711C40.4985 30.2136 44.2206 35.9656 42.9688 37.2175V37.2182Z" fill="#98A7E7"/><path fill-rule="evenodd" clip-rule="evenodd" d="M37.2146 24.9147V19.8766C37.1882 17.1627 38.6025 16.7295 41.4575 18.577C44.3118 20.4245 45.8237 21.0957 45.9919 20.592C44.1444 18.0733 43.7247 16.3099 44.7322 15.3024C46.2434 13.7905 48.2591 16.8136 49.7696 15.3024C50.7777 14.2942 50.6103 12.783 49.2665 10.768L50.7777 9.2561C52.7927 12.2792 53.0449 14.5464 51.533 16.0576C49.2665 18.3248 45.7397 15.3024 45.7397 16.3099C45.7397 17.3173 48.2583 19.8367 46.7471 21.3472C45.2359 22.8592 41.2053 19.8367 40.7016 19.333C40.3653 18.9967 40.1978 19.1648 40.1978 19.8367V24.8741L37.2146 24.9147Z" fill="#C3CAEA"/><path fill-rule="evenodd" clip-rule="evenodd" d="M32.3368 31.0252C38.5199 27.5966 45.1711 25.8823 52.289 25.8823V28.9055C44.2092 28.1132 38.148 29.3387 34.1031 32.5813C33.5045 32.0739 32.9156 31.5551 32.3368 31.0252ZM27.2496 25.8531C28.5292 16.6241 27.3871 11.8475 23.8239 11.5233V9.00464C27.1826 9.67653 29.1135 11.9437 29.6179 15.8062C30.0903 19.4271 29.7505 23.2703 28.5991 27.3344C28.1416 26.8476 27.6918 26.3538 27.2496 25.8531ZM9.96862 12.783C10.5329 13.9743 13.244 13.0353 14.2507 14.5465C15.2589 16.0577 11.7321 17.0659 10.4724 18.3249C9.63303 19.1649 10.5564 19.5846 13.244 19.5846C14.7545 19.4164 15.8467 19.6686 16.5186 20.3398C17.1905 21.0124 16.3505 22.8592 13.9992 25.8823L12.7395 25.6301C13.0758 25.2945 13.7477 24.2871 14.7552 22.6077C15.7627 20.9283 15.0067 20.1724 12.488 20.3405C10.4724 20.3405 9.29744 19.8368 8.96114 18.8286C8.62556 17.8211 9.63303 16.8136 11.9843 15.8062C9.96862 15.8062 8.62556 15.1343 7.95367 13.7905C7.28178 12.4474 8.20589 10.8522 10.7246 9.00464L11.9843 9.75989C9.96862 10.7681 9.40503 11.5917 9.96862 12.783Z" fill="#7282C6"/></svg>