<svg width="1363" height="819" fill="none" xmlns="http://www.w3.org/2000/svg"><g filter="url(#filter0_dd)"><rect x="722.147" y="54" width="369" height="132" rx="5" transform="rotate(20 722.147 54)" fill="#fff"/></g><rect x="814.907" y="132.458" width="162" height="22" rx="4" transform="rotate(20 814.907 132.458)" fill="#EDF2F7"/><rect x="802.594" y="166.286" width="225" height="22" rx="4" transform="rotate(20 802.594 166.286)" fill="#EDF2F7"/><circle cx="757.921" cy="134.064" r="32" transform="rotate(20 757.921 134.064)" fill="#EDF2F7"/><g filter="url(#filter1_dd)"><rect x="131.6" y="2" width="428" height="376" rx="5" transform="rotate(20 131.6 2)" fill="#fff"/></g><rect x="318.943" y="142.211" width="40" height="42.9714" rx="4" transform="rotate(20 318.943 142.211)" fill="#EDF2F7"/><rect x="367.807" y="159.996" width="108" height="42.9714" rx="4" transform="rotate(20 367.807 159.996)" fill="#EDF2F7"/><path transform="rotate(20 139.462 76.885)" fill="#EDF2F7" d="M139.462 76.885H268.462V99.44500000000001H139.462z"/><path transform="rotate(20 126.602 112.218)" fill="#EDF2F7" d="M126.602 112.218H302.602V134.778H126.602z"/><path transform="rotate(20 112.152 160.69)" fill="#EDF2F7" d="M112.152 160.69H460.152V314.313H112.152z"/><g filter="url(#filter2_dd)"><rect x="574.427" y="177.235" width="369" height="376" rx="5" transform="rotate(20 574.427 177.235)" fill="#fff"/></g><rect x="661.525" y="265.458" width="162" height="22" rx="4" transform="rotate(20 661.525 265.458)" fill="#EDF2F7"/><rect x="649.212" y="299.286" width="225" height="22" rx="4" transform="rotate(20 649.212 299.286)" fill="#EDF2F7"/><circle cx="604.539" cy="267.064" r="32" transform="rotate(20 604.539 267.064)" fill="#EDF2F7"/><rect x="621.768" y="365.918" width="162" height="22" rx="4" transform="rotate(20 621.768 365.918)" fill="#EDF2F7"/><rect x="609.455" y="399.747" width="225" height="22" rx="4" transform="rotate(20 609.455 399.747)" fill="#EDF2F7"/><circle cx="564.782" cy="367.525" r="32" transform="rotate(20 564.782 367.525)" fill="#EDF2F7"/><rect x="584.83" y="467.405" width="162" height="22" rx="4" transform="rotate(20 584.83 467.405)" fill="#EDF2F7"/><rect x="572.517" y="501.234" width="225" height="22" rx="4" transform="rotate(20 572.517 501.234)" fill="#EDF2F7"/><circle cx="527.844" cy="469.012" r="32" transform="rotate(20 527.844 469.012)" fill="#EDF2F7"/><g filter="url(#filter3_dd)"><rect x="957.6" y="315" width="428" height="376" rx="5" transform="rotate(20 957.6 315)" fill="#fff"/></g><rect x="1144.94" y="455.211" width="40" height="42.9714" rx="4" transform="rotate(20 1144.94 455.211)" fill="#EDF2F7"/><rect x="1193.81" y="472.996" width="108" height="42.9714" rx="4" transform="rotate(20 1193.81 472.996)" fill="#EDF2F7"/><path transform="rotate(20 965.461 389.885)" fill="#EDF2F7" d="M965.461 389.885H1094.461V412.445H965.461z"/><path transform="rotate(20 952.601 425.218)" fill="#EDF2F7" d="M952.601 425.218H1128.601V447.778H952.601z"/><path transform="rotate(20 938.152 473.69)" fill="#EDF2F7" d="M938.152 473.69H1286.152V627.313H938.152z"/><defs><filter id="filter0_dd" x="674" y="52" width="397.893" height="256.245" filterUnits="userSpaceOnUse" color-interpolation-filters="sRGB"><feFlood flood-opacity="0" result="BackgroundImageFix"/><feColorMatrix in="SourceAlpha" values="0 0 0 0 0 0 0 0 0 0 0 0 0 0 0 0 0 0 127 0"/><feOffset dy="1"/><feGaussianBlur stdDeviation="1.5"/><feColorMatrix values="0 0 0 0 0 0 0 0 0 0 0 0 0 0 0 0 0 0 0.1 0"/><feBlend in2="BackgroundImageFix" result="effect1_dropShadow"/><feColorMatrix in="SourceAlpha" values="0 0 0 0 0 0 0 0 0 0 0 0 0 0 0 0 0 0 127 0"/><feOffset dy="1"/><feGaussianBlur stdDeviation="1"/><feColorMatrix values="0 0 0 0 0 0 0 0 0 0 0 0 0 0 0 0 0 0 0.06 0"/><feBlend in2="effect1_dropShadow" result="effect2_dropShadow"/><feBlend in="SourceGraphic" in2="effect2_dropShadow" result="shape"/></filter><filter id="filter1_dd" x="0" y="0" width="536.788" height="505.709" filterUnits="userSpaceOnUse" color-interpolation-filters="sRGB"><feFlood flood-opacity="0" result="BackgroundImageFix"/><feColorMatrix in="SourceAlpha" values="0 0 0 0 0 0 0 0 0 0 0 0 0 0 0 0 0 0 127 0"/><feOffset dy="1"/><feGaussianBlur stdDeviation="1.5"/><feColorMatrix values="0 0 0 0 0 0 0 0 0 0 0 0 0 0 0 0 0 0 0.1 0"/><feBlend in2="BackgroundImageFix" result="effect1_dropShadow"/><feColorMatrix in="SourceAlpha" values="0 0 0 0 0 0 0 0 0 0 0 0 0 0 0 0 0 0 127 0"/><feOffset dy="1"/><feGaussianBlur stdDeviation="1"/><feColorMatrix values="0 0 0 0 0 0 0 0 0 0 0 0 0 0 0 0 0 0 0.06 0"/><feBlend in2="effect1_dropShadow" result="effect2_dropShadow"/><feBlend in="SourceGraphic" in2="effect2_dropShadow" result="shape"/></filter><filter id="filter2_dd" x="442.827" y="175.235" width="481.346" height="485.53" filterUnits="userSpaceOnUse" color-interpolation-filters="sRGB"><feFlood flood-opacity="0" result="BackgroundImageFix"/><feColorMatrix in="SourceAlpha" values="0 0 0 0 0 0 0 0 0 0 0 0 0 0 0 0 0 0 127 0"/><feOffset dy="1"/><feGaussianBlur stdDeviation="1.5"/><feColorMatrix values="0 0 0 0 0 0 0 0 0 0 0 0 0 0 0 0 0 0 0.1 0"/><feBlend in2="BackgroundImageFix" result="effect1_dropShadow"/><feColorMatrix in="SourceAlpha" values="0 0 0 0 0 0 0 0 0 0 0 0 0 0 0 0 0 0 127 0"/><feOffset dy="1"/><feGaussianBlur stdDeviation="1"/><feColorMatrix values="0 0 0 0 0 0 0 0 0 0 0 0 0 0 0 0 0 0 0.06 0"/><feBlend in2="effect1_dropShadow" result="effect2_dropShadow"/><feBlend in="SourceGraphic" in2="effect2_dropShadow" result="shape"/></filter><filter id="filter3_dd" x="826" y="313" width="536.788" height="505.709" filterUnits="userSpaceOnUse" color-interpolation-filters="sRGB"><feFlood flood-opacity="0" result="BackgroundImageFix"/><feColorMatrix in="SourceAlpha" values="0 0 0 0 0 0 0 0 0 0 0 0 0 0 0 0 0 0 127 0"/><feOffset dy="1"/><feGaussianBlur stdDeviation="1.5"/><feColorMatrix values="0 0 0 0 0 0 0 0 0 0 0 0 0 0 0 0 0 0 0.1 0"/><feBlend in2="BackgroundImageFix" result="effect1_dropShadow"/><feColorMatrix in="SourceAlpha" values="0 0 0 0 0 0 0 0 0 0 0 0 0 0 0 0 0 0 127 0"/><feOffset dy="1"/><feGaussianBlur stdDeviation="1"/><feColorMatrix values="0 0 0 0 0 0 0 0 0 0 0 0 0 0 0 0 0 0 0.06 0"/><feBlend in2="effect1_dropShadow" result="effect2_dropShadow"/><feBlend in="SourceGraphic" in2="effect2_dropShadow" result="shape"/></filter></defs></svg>