<svg viewBox="0 0 159 313" fill="none" xmlns="http://www.w3.org/2000/svg"><circle cx="2.5" cy="2.5" r="2.5" fill="#e2e8f0"/><circle cx="2.5" cy="112.5" r="2.5" fill="#e2e8f0"/><circle cx="2.5" cy="222.5" r="2.5" fill="#e2e8f0"/><circle cx="2.5" cy="24.5" r="2.5" fill="#e2e8f0"/><circle cx="2.5" cy="134.5" r="2.5" fill="#e2e8f0"/><circle cx="2.5" cy="244.5" r="2.5" fill="#e2e8f0"/><circle cx="2.5" cy="46.5" r="2.5" fill="#e2e8f0"/><circle cx="2.5" cy="156.5" r="2.5" fill="#e2e8f0"/><circle cx="2.5" cy="266.5" r="2.5" fill="#e2e8f0"/><circle cx="2.5" cy="68.5" r="2.5" fill="#e2e8f0"/><circle cx="2.5" cy="178.5" r="2.5" fill="#e2e8f0"/><circle cx="2.5" cy="288.5" r="2.5" fill="#e2e8f0"/><circle cx="2.5" cy="90.5" r="2.5" fill="#e2e8f0"/><circle cx="2.5" cy="200.5" r="2.5" fill="#e2e8f0"/><circle cx="2.5" cy="310.5" r="2.5" fill="#e2e8f0"/><circle cx="90.5" cy="2.5" r="2.5" fill="#e2e8f0"/><circle cx="90.5" cy="112.5" r="2.5" fill="#e2e8f0"/><circle cx="90.5" cy="222.5" r="2.5" fill="#e2e8f0"/><circle cx="90.5" cy="24.5" r="2.5" fill="#e2e8f0"/><circle cx="90.5" cy="134.5" r="2.5" fill="#e2e8f0"/><circle cx="90.5" cy="244.5" r="2.5" fill="#e2e8f0"/><circle cx="90.5" cy="46.5" r="2.5" fill="#e2e8f0"/><circle cx="90.5" cy="156.5" r="2.5" fill="#e2e8f0"/><circle cx="90.5" cy="266.5" r="2.5" fill="#e2e8f0"/><circle cx="90.5" cy="68.5" r="2.5" fill="#e2e8f0"/><circle cx="90.5" cy="178.5" r="2.5" fill="#e2e8f0"/><circle cx="90.5" cy="288.5" r="2.5" fill="#e2e8f0"/><circle cx="90.5" cy="90.5" r="2.5" fill="#e2e8f0"/><circle cx="90.5" cy="200.5" r="2.5" fill="#e2e8f0"/><circle cx="90.5" cy="310.5" r="2.5" fill="#e2e8f0"/><circle cx="24.5" cy="2.5" r="2.5" fill="#e2e8f0"/><circle cx="24.5" cy="112.5" r="2.5" fill="#e2e8f0"/><circle cx="24.5" cy="222.5" r="2.5" fill="#e2e8f0"/><circle cx="24.5" cy="24.5" r="2.5" fill="#e2e8f0"/><circle cx="24.5" cy="134.5" r="2.5" fill="#e2e8f0"/><circle cx="24.5" cy="244.5" r="2.5" fill="#e2e8f0"/><circle cx="24.5" cy="46.5" r="2.5" fill="#e2e8f0"/><circle cx="24.5" cy="156.5" r="2.5" fill="#e2e8f0"/><circle cx="24.5" cy="266.5" r="2.5" fill="#e2e8f0"/><circle cx="24.5" cy="68.5" r="2.5" fill="#e2e8f0"/><circle cx="24.5" cy="178.5" r="2.5" fill="#e2e8f0"/><circle cx="24.5" cy="288.5" r="2.5" fill="#e2e8f0"/><circle cx="24.5" cy="90.5" r="2.5" fill="#e2e8f0"/><circle cx="24.5" cy="200.5" r="2.5" fill="#e2e8f0"/><circle cx="24.5" cy="310.5" r="2.5" fill="#e2e8f0"/><circle cx="112.5" cy="2.5" r="2.5" fill="#e2e8f0"/><circle cx="112.5" cy="112.5" r="2.5" fill="#e2e8f0"/><circle cx="112.5" cy="222.5" r="2.5" fill="#e2e8f0"/><circle cx="112.5" cy="24.5" r="2.5" fill="#e2e8f0"/><circle cx="112.5" cy="134.5" r="2.5" fill="#e2e8f0"/><circle cx="112.5" cy="244.5" r="2.5" fill="#e2e8f0"/><circle cx="112.5" cy="46.5" r="2.5" fill="#e2e8f0"/><circle cx="112.5" cy="156.5" r="2.5" fill="#e2e8f0"/><circle cx="112.5" cy="266.5" r="2.5" fill="#e2e8f0"/><circle cx="112.5" cy="68.5" r="2.5" fill="#e2e8f0"/><circle cx="112.5" cy="178.5" r="2.5" fill="#e2e8f0"/><circle cx="112.5" cy="288.5" r="2.5" fill="#e2e8f0"/><circle cx="112.5" cy="90.5" r="2.5" fill="#e2e8f0"/><circle cx="112.5" cy="200.5" r="2.5" fill="#e2e8f0"/><circle cx="112.5" cy="310.5" r="2.5" fill="#e2e8f0"/><circle cx="46.5" cy="2.5" r="2.5" fill="#e2e8f0"/><circle cx="46.5" cy="112.5" r="2.5" fill="#e2e8f0"/><circle cx="46.5" cy="222.5" r="2.5" fill="#e2e8f0"/><circle cx="46.5" cy="24.5" r="2.5" fill="#e2e8f0"/><circle cx="46.5" cy="134.5" r="2.5" fill="#e2e8f0"/><circle cx="46.5" cy="244.5" r="2.5" fill="#e2e8f0"/><circle cx="46.5" cy="46.5" r="2.5" fill="#e2e8f0"/><circle cx="46.5" cy="156.5" r="2.5" fill="#e2e8f0"/><circle cx="46.5" cy="266.5" r="2.5" fill="#e2e8f0"/><circle cx="46.5" cy="68.5" r="2.5" fill="#e2e8f0"/><circle cx="46.5" cy="178.5" r="2.5" fill="#e2e8f0"/><circle cx="46.5" cy="288.5" r="2.5" fill="#e2e8f0"/><circle cx="46.5" cy="90.5" r="2.5" fill="#e2e8f0"/><circle cx="46.5" cy="200.5" r="2.5" fill="#e2e8f0"/><circle cx="46.5" cy="310.5" r="2.5" fill="#e2e8f0"/><circle cx="134.5" cy="2.5" r="2.5" fill="#e2e8f0"/><circle cx="134.5" cy="112.5" r="2.5" fill="#e2e8f0"/><circle cx="134.5" cy="222.5" r="2.5" fill="#e2e8f0"/><circle cx="134.5" cy="24.5" r="2.5" fill="#e2e8f0"/><circle cx="134.5" cy="134.5" r="2.5" fill="#e2e8f0"/><circle cx="134.5" cy="244.5" r="2.5" fill="#e2e8f0"/><circle cx="134.5" cy="46.5" r="2.5" fill="#e2e8f0"/><circle cx="134.5" cy="156.5" r="2.5" fill="#e2e8f0"/><circle cx="134.5" cy="266.5" r="2.5" fill="#e2e8f0"/><circle cx="134.5" cy="68.5" r="2.5" fill="#e2e8f0"/><circle cx="134.5" cy="178.5" r="2.5" fill="#e2e8f0"/><circle cx="134.5" cy="288.5" r="2.5" fill="#e2e8f0"/><circle cx="134.5" cy="90.5" r="2.5" fill="#e2e8f0"/><circle cx="134.5" cy="200.5" r="2.5" fill="#e2e8f0"/><circle cx="134.5" cy="310.5" r="2.5" fill="#e2e8f0"/><circle cx="68.5" cy="2.5" r="2.5" fill="#e2e8f0"/><circle cx="68.5" cy="112.5" r="2.5" fill="#e2e8f0"/><circle cx="68.5" cy="222.5" r="2.5" fill="#e2e8f0"/><circle cx="68.5" cy="24.5" r="2.5" fill="#e2e8f0"/><circle cx="68.5" cy="134.5" r="2.5" fill="#e2e8f0"/><circle cx="68.5" cy="244.5" r="2.5" fill="#e2e8f0"/><circle cx="68.5" cy="46.5" r="2.5" fill="#e2e8f0"/><circle cx="68.5" cy="156.5" r="2.5" fill="#e2e8f0"/><circle cx="68.5" cy="266.5" r="2.5" fill="#e2e8f0"/><circle cx="68.5" cy="68.5" r="2.5" fill="#e2e8f0"/><circle cx="68.5" cy="178.5" r="2.5" fill="#e2e8f0"/><circle cx="68.5" cy="288.5" r="2.5" fill="#e2e8f0"/><circle cx="68.5" cy="90.5" r="2.5" fill="#e2e8f0"/><circle cx="68.5" cy="200.5" r="2.5" fill="#e2e8f0"/><circle cx="68.5" cy="310.5" r="2.5" fill="#e2e8f0"/><circle cx="156.5" cy="2.5" r="2.5" fill="#e2e8f0"/><circle cx="156.5" cy="112.5" r="2.5" fill="#e2e8f0"/><circle cx="156.5" cy="222.5" r="2.5" fill="#e2e8f0"/><circle cx="156.5" cy="24.5" r="2.5" fill="#e2e8f0"/><circle cx="156.5" cy="134.5" r="2.5" fill="#e2e8f0"/><circle cx="156.5" cy="244.5" r="2.5" fill="#e2e8f0"/><circle cx="156.5" cy="46.5" r="2.5" fill="#e2e8f0"/><circle cx="156.5" cy="156.5" r="2.5" fill="#e2e8f0"/><circle cx="156.5" cy="266.5" r="2.5" fill="#e2e8f0"/><circle cx="156.5" cy="68.5" r="2.5" fill="#e2e8f0"/><circle cx="156.5" cy="178.5" r="2.5" fill="#e2e8f0"/><circle cx="156.5" cy="288.5" r="2.5" fill="#e2e8f0"/><circle cx="156.5" cy="90.5" r="2.5" fill="#e2e8f0"/><circle cx="156.5" cy="200.5" r="2.5" fill="#e2e8f0"/><circle cx="156.5" cy="310.5" r="2.5" fill="#e2e8f0"/></svg>