<svg width="1357" height="813" viewBox="0 0 1357 813" fill="none" xmlns="http://www.w3.org/2000/svg">
<rect x="719.147" y="52" width="369" height="132" rx="5" transform="rotate(20 719.147 52)" fill="#718096"/>
<rect x="811.907" y="130.458" width="162" height="22" rx="4" transform="rotate(20 811.907 130.458)" fill="#4A5568"/>
<rect x="799.594" y="164.286" width="225" height="22" rx="4" transform="rotate(20 799.594 164.286)" fill="#4A5568"/>
<circle cx="754.921" cy="132.064" r="32" transform="rotate(20 754.921 132.064)" fill="#4A5568"/>
<rect x="128.6" width="428" height="376" rx="5" transform="rotate(20 128.6 0)" fill="#718096"/>
<rect x="315.943" y="140.211" width="40" height="42.9714" rx="4" transform="rotate(20 315.943 140.211)" fill="#4A5568"/>
<rect x="364.807" y="157.996" width="108" height="42.9714" rx="4" transform="rotate(20 364.807 157.996)" fill="#4A5568"/>
<rect x="136.462" y="74.885" width="129" height="22.56" transform="rotate(20 136.462 74.885)" fill="#4A5568"/>
<rect x="123.602" y="110.218" width="176" height="22.56" transform="rotate(20 123.602 110.218)" fill="#4A5568"/>
<rect x="109.152" y="158.69" width="348" height="153.623" transform="rotate(20 109.152 158.69)" fill="#4A5568"/>
<rect x="571.427" y="175.235" width="369" height="376" rx="5" transform="rotate(20 571.427 175.235)" fill="#718096"/>
<rect x="664.525" y="264.458" width="162" height="22" rx="4" transform="rotate(20 664.525 264.458)" fill="#4A5568"/>
<rect x="652.212" y="298.286" width="225" height="22" rx="4" transform="rotate(20 652.212 298.286)" fill="#4A5568"/>
<circle cx="607.539" cy="266.064" r="32" transform="rotate(20 607.539 266.064)" fill="#4A5568"/>
<rect x="624.768" y="364.918" width="162" height="22" rx="4" transform="rotate(20 624.768 364.918)" fill="#4A5568"/>
<rect x="612.455" y="398.747" width="225" height="22" rx="4" transform="rotate(20 612.455 398.747)" fill="#4A5568"/>
<circle cx="567.782" cy="366.525" r="32" transform="rotate(20 567.782 366.525)" fill="#4A5568"/>
<rect x="587.83" y="466.405" width="162" height="22" rx="4" transform="rotate(20 587.83 466.405)" fill="#4A5568"/>
<rect x="575.517" y="500.234" width="225" height="22" rx="4" transform="rotate(20 575.517 500.234)" fill="#4A5568"/>
<circle cx="530.844" cy="468.012" r="32" transform="rotate(20 530.844 468.012)" fill="#4A5568"/>
<rect x="954.6" y="313" width="428" height="376" rx="5" transform="rotate(20 954.6 313)" fill="#718096"/>
<rect x="1141.94" y="453.211" width="40" height="42.9714" rx="4" transform="rotate(20 1141.94 453.211)" fill="#4A5568"/>
<rect x="1190.81" y="470.996" width="108" height="42.9714" rx="4" transform="rotate(20 1190.81 470.996)" fill="#4A5568"/>
<rect x="962.462" y="387.885" width="129" height="22.56" transform="rotate(20 962.462 387.885)" fill="#4A5568"/>
<rect x="949.602" y="423.218" width="176" height="22.56" transform="rotate(20 949.602 423.218)" fill="#4A5568"/>
<rect x="935.152" y="471.69" width="348" height="153.623" transform="rotate(20 935.152 471.69)" fill="#4A5568"/>
</svg>
